<svg xmlns="http://www.w3.org/2000/svg" viewBox="0 0 1233.99 80.39"><defs><style>.cls-1{fill:#fff;}</style></defs><title>Asset 9</title><g id="Layer_2" data-name="Layer 2"><g id="Layer_1-2" data-name="Layer 1"><path class="cls-1" d="M1234,36.4c-44.72,0-67.42-8.45-89.37-16.62-22.37-8.33-43.5-16.19-86.92-16.19s-64.55,7.86-86.91,16.19c-22,8.17-44.65,16.62-89.38,16.62S814,28,792,19.78c-22.36-8.33-43.49-16.19-86.91-16.19s-64.54,7.86-86.91,16.19c-22,8.17-44.65,16.62-89.37,16.62S461.43,28,439.48,19.78C417.11,11.45,396,3.59,352.57,3.59S288,11.45,265.65,19.78C243.7,28,221,36.4,176.28,36.4S108.86,28,86.91,19.78C64.55,11.45,43.42,3.59,0,3.59V0C44.72,0,67.42,8.45,89.37,16.62c22.37,8.32,43.5,16.19,86.91,16.19s64.55-7.87,86.92-16.19C285.15,8.45,307.84,0,352.57,0S420,8.45,441.94,16.62c22.36,8.32,43.49,16.19,86.91,16.19s64.54-7.87,86.91-16.19C637.71,8.45,660.41,0,705.13,0s67.42,8.45,89.37,16.62c22.37,8.32,43.49,16.19,86.91,16.19S946,24.94,968.33,16.62C990.28,8.45,1013,0,1057.7,0s67.42,8.45,89.37,16.62c22.37,8.32,43.5,16.19,86.92,16.19Z"/><path class="cls-1" d="M1234,58.39c-44.72,0-67.42-8.44-89.37-16.61-22.37-8.33-43.5-16.19-86.92-16.19s-64.55,7.86-86.91,16.19c-22,8.17-44.65,16.61-89.38,16.61S814,50,792,41.78c-22.36-8.33-43.49-16.19-86.91-16.19s-64.54,7.86-86.91,16.19c-22,8.17-44.65,16.61-89.37,16.61S461.43,50,439.48,41.78c-22.37-8.33-43.5-16.19-86.91-16.19S288,33.45,265.65,41.78C243.7,50,221,58.39,176.28,58.39S108.86,50,86.91,41.78C64.55,33.45,43.42,25.59,0,25.59V22c44.72,0,67.42,8.45,89.37,16.62,22.37,8.32,43.5,16.18,86.91,16.18s64.55-7.86,86.92-16.18C285.15,30.45,307.84,22,352.57,22S420,30.45,441.94,38.62c22.36,8.32,43.49,16.18,86.91,16.18s64.54-7.86,86.91-16.18c22-8.17,44.65-16.62,89.37-16.62s67.42,8.45,89.37,16.62C816.87,46.94,838,54.8,881.41,54.8S946,46.94,968.33,38.62C990.28,30.45,1013,22,1057.7,22s67.42,8.45,89.37,16.62c22.37,8.32,43.5,16.18,86.92,16.18Z"/><path class="cls-1" d="M1234,80.39c-44.72,0-67.42-8.45-89.37-16.62-22.37-8.32-43.5-16.19-86.92-16.19s-64.55,7.87-86.91,16.19c-22,8.17-44.65,16.62-89.38,16.62S814,71.94,792,63.77c-22.36-8.32-43.49-16.19-86.91-16.19s-64.54,7.87-86.91,16.19c-22,8.17-44.65,16.62-89.37,16.62s-67.42-8.45-89.37-16.62c-22.37-8.32-43.5-16.19-86.91-16.19S288,55.45,265.65,63.77C243.7,71.94,221,80.39,176.28,80.39s-67.42-8.45-89.37-16.62C64.55,55.45,43.42,47.58,0,47.58V44c44.72,0,67.42,8.45,89.37,16.62,22.37,8.33,43.5,16.19,86.91,16.19s64.55-7.86,86.92-16.19C285.15,52.44,307.84,44,352.57,44S420,52.44,441.94,60.61c22.36,8.33,43.49,16.19,86.91,16.19s64.54-7.86,86.91-16.19c22-8.17,44.65-16.62,89.37-16.62s67.42,8.45,89.37,16.62C816.87,68.94,838,76.8,881.41,76.8S946,68.94,968.33,60.61C990.28,52.44,1013,44,1057.7,44s67.42,8.45,89.37,16.62c22.37,8.33,43.5,16.19,86.92,16.19Z"/></g></g></svg>