<svg xmlns="http://www.w3.org/2000/svg" viewBox="0 0 65 56.74"><defs><style>.cls-1{fill:#fff;}</style></defs><title>Asset 1</title><g id="Layer_2" data-name="Layer 2"><g id="Layer_1-2" data-name="Layer 1"><path class="cls-1" d="M41.4,26.17H55.19c5.41,0,9.81-4.81,9.81-10.73V0H26A24.71,24.71,0,0,0,7.6,8.31,29.44,29.44,0,0,0,0,27v0c0,.15,0,.31,0,.46s0,.57,0,.86,0,.88,0,1.32A29.46,29.46,0,0,0,7.6,48.43,24.71,24.71,0,0,0,26,56.74H65V41.39c0-5.89-4.39-10.71-9.78-10.73l-11.6-.05-2.3,0L47.25,54H44.06L32.14,30.74H24.6A25.34,25.34,0,0,1,18,29.86,27,27,0,0,1,14,28.46,25.84,25.84,0,0,1,24.6,26.17h7.53l12-23.47h3.08Zm3.18,7.15,10.63,0c4,0,7.32,3.62,7.32,8V54H49.81Zm-13.9-9.85H24.6a28.29,28.29,0,0,0-13.87,3.69l-.16.09L8.42,28.43l2.13,1.22a28.34,28.34,0,0,0,6.82,2.83,27.68,27.68,0,0,0,7.23,1h6.09L41.23,54H26a22.34,22.34,0,0,1-16.6-7.51A26.65,26.65,0,0,1,2.5,29.72s0-.73,0-1.42S2.5,27,2.5,27a26.65,26.65,0,0,1,6.85-16.8A22.35,22.35,0,0,1,26,2.7H41.34ZM62.53,2.7V15.44c0,4.43-3.3,8-7.34,8H44.64L49.81,2.7Z"/></g></g></svg>