<svg xmlns="http://www.w3.org/2000/svg" viewBox="0 0 197.45 172.35"><defs><style>.cls-1{fill:#fff;}</style></defs><title>Asset 1</title><g id="Layer_2" data-name="Layer 2"><g id="Layer_1-2" data-name="Layer 1"><path class="cls-1" d="M125.77,79.5h41.87c16.43,0,29.81-14.62,29.81-32.59V0H78.84C57.78,0,38,9,23.09,25.24a89.41,89.41,0,0,0-23,56.83.28.28,0,0,1,0,.09c0,.47,0,.94,0,1.41,0,.87,0,1.74,0,2.6,0,1.35,0,2.68.08,4a89.51,89.51,0,0,0,23,56.93C38,163.38,57.78,172.35,78.84,172.35H197.45V125.72c0-17.9-13.32-32.52-29.7-32.58L132.49,93l-7-.12,18,71.27h-9.69L97.62,93.39H74.73a77.4,77.4,0,0,1-20.17-2.68,79.61,79.61,0,0,1-11.9-4.26,78.14,78.14,0,0,1,32.06-7H97.59l36.6-71.29h9.34Zm9.64,21.71,32.31.13c12.25,0,22.22,11,22.22,24.38v38.42H151.31ZM93.19,71.29H74.72A85.78,85.78,0,0,0,32.59,82.51l-.49.28-6.52,3.56,6.48,3.73a87,87,0,0,0,20.7,8.59,84.25,84.25,0,0,0,22,2.93H93.22l32,62.54H78.84c-19.06,0-37-8.11-50.44-22.84a80.89,80.89,0,0,1-20.8-51S7.49,88.05,7.49,86s.11-3.9.11-3.9A80.91,80.91,0,0,1,28.4,31C41.87,16.32,59.79,8.21,78.84,8.21h46.74ZM189.94,8.21v38.7c0,13.44-10,24.38-22.3,24.38h-32L151.32,8.21Z"/></g></g></svg>